<mxfile host="app.diagrams.net" agent="Mozilla/5.0 (Macintosh; Intel Mac OS X 10.15; rv:134.0) Gecko/20100101 Firefox/134.0" version="26.0.10">
  <diagram name="Page-1" id="ss6D8p6kptXvcRFLBRH7">
    <mxGraphModel dx="787" dy="508" grid="1" gridSize="10" guides="1" tooltips="1" connect="1" arrows="1" fold="1" page="1" pageScale="1" pageWidth="850" pageHeight="1100" background="#A9C4EB" math="0" shadow="0">
      <root>
        <mxCell id="0" />
        <mxCell id="1" parent="0" />
        <mxCell id="dOwPOWtXe94sO2T78dOZ-1" value="User" style="rounded=0;whiteSpace=wrap;html=1;" vertex="1" parent="1">
          <mxGeometry x="120" y="140" width="120" height="60" as="geometry" />
        </mxCell>
        <mxCell id="dOwPOWtXe94sO2T78dOZ-8" style="edgeStyle=orthogonalEdgeStyle;rounded=0;orthogonalLoop=1;jettySize=auto;html=1;" edge="1" parent="1" source="dOwPOWtXe94sO2T78dOZ-2" target="dOwPOWtXe94sO2T78dOZ-3">
          <mxGeometry relative="1" as="geometry" />
        </mxCell>
        <mxCell id="dOwPOWtXe94sO2T78dOZ-17" style="edgeStyle=orthogonalEdgeStyle;rounded=0;orthogonalLoop=1;jettySize=auto;html=1;exitX=0;exitY=0;exitDx=0;exitDy=0;entryX=0.5;entryY=0;entryDx=0;entryDy=0;" edge="1" parent="1" source="dOwPOWtXe94sO2T78dOZ-2" target="dOwPOWtXe94sO2T78dOZ-1">
          <mxGeometry relative="1" as="geometry">
            <Array as="points">
              <mxPoint x="322" y="120" />
              <mxPoint x="180" y="120" />
            </Array>
          </mxGeometry>
        </mxCell>
        <mxCell id="dOwPOWtXe94sO2T78dOZ-18" style="edgeStyle=orthogonalEdgeStyle;rounded=0;orthogonalLoop=1;jettySize=auto;html=1;entryX=0.5;entryY=0;entryDx=0;entryDy=0;" edge="1" parent="1" source="dOwPOWtXe94sO2T78dOZ-2" target="dOwPOWtXe94sO2T78dOZ-5">
          <mxGeometry relative="1" as="geometry">
            <Array as="points">
              <mxPoint x="350" y="110" />
              <mxPoint x="690" y="110" />
            </Array>
          </mxGeometry>
        </mxCell>
        <mxCell id="dOwPOWtXe94sO2T78dOZ-2" value="&lt;div&gt;Retrieve&lt;/div&gt;&lt;div&gt;Data&lt;/div&gt;" style="ellipse;whiteSpace=wrap;html=1;aspect=fixed;" vertex="1" parent="1">
          <mxGeometry x="310" y="130" width="80" height="80" as="geometry" />
        </mxCell>
        <mxCell id="dOwPOWtXe94sO2T78dOZ-9" style="edgeStyle=orthogonalEdgeStyle;rounded=0;orthogonalLoop=1;jettySize=auto;html=1;entryX=0.5;entryY=0;entryDx=0;entryDy=0;" edge="1" parent="1" source="dOwPOWtXe94sO2T78dOZ-3" target="dOwPOWtXe94sO2T78dOZ-4">
          <mxGeometry relative="1" as="geometry" />
        </mxCell>
        <mxCell id="dOwPOWtXe94sO2T78dOZ-3" value="Website" style="whiteSpace=wrap;html=1;" vertex="1" parent="1">
          <mxGeometry x="460" y="140" width="120" height="60" as="geometry" />
        </mxCell>
        <mxCell id="dOwPOWtXe94sO2T78dOZ-11" style="edgeStyle=orthogonalEdgeStyle;rounded=0;orthogonalLoop=1;jettySize=auto;html=1;" edge="1" parent="1" source="dOwPOWtXe94sO2T78dOZ-4" target="dOwPOWtXe94sO2T78dOZ-5">
          <mxGeometry relative="1" as="geometry">
            <Array as="points">
              <mxPoint x="600" y="290" />
              <mxPoint x="600" y="240" />
            </Array>
          </mxGeometry>
        </mxCell>
        <mxCell id="dOwPOWtXe94sO2T78dOZ-4" value="Filter Site" style="ellipse;whiteSpace=wrap;html=1;" vertex="1" parent="1">
          <mxGeometry x="480" y="250" width="80" height="80" as="geometry" />
        </mxCell>
        <mxCell id="dOwPOWtXe94sO2T78dOZ-5" value="Logging" style="ellipse;whiteSpace=wrap;html=1;" vertex="1" parent="1">
          <mxGeometry x="650" y="200" width="80" height="80" as="geometry" />
        </mxCell>
        <mxCell id="dOwPOWtXe94sO2T78dOZ-12" style="edgeStyle=orthogonalEdgeStyle;rounded=0;orthogonalLoop=1;jettySize=auto;html=1;exitX=0.5;exitY=1;exitDx=0;exitDy=0;entryX=0.5;entryY=1;entryDx=0;entryDy=0;" edge="1" parent="1" source="dOwPOWtXe94sO2T78dOZ-6" target="dOwPOWtXe94sO2T78dOZ-5">
          <mxGeometry relative="1" as="geometry" />
        </mxCell>
        <mxCell id="dOwPOWtXe94sO2T78dOZ-6" value="Dashboard" style="ellipse;whiteSpace=wrap;html=1;" vertex="1" parent="1">
          <mxGeometry x="300" y="250" width="80" height="80" as="geometry" />
        </mxCell>
        <mxCell id="dOwPOWtXe94sO2T78dOZ-7" value="" style="endArrow=classic;html=1;rounded=0;exitX=1;exitY=0.5;exitDx=0;exitDy=0;entryX=0;entryY=0.5;entryDx=0;entryDy=0;" edge="1" parent="1" source="dOwPOWtXe94sO2T78dOZ-1" target="dOwPOWtXe94sO2T78dOZ-2">
          <mxGeometry width="50" height="50" relative="1" as="geometry">
            <mxPoint x="410" y="340" as="sourcePoint" />
            <mxPoint x="460" y="290" as="targetPoint" />
          </mxGeometry>
        </mxCell>
        <mxCell id="dOwPOWtXe94sO2T78dOZ-13" style="edgeStyle=orthogonalEdgeStyle;rounded=0;orthogonalLoop=1;jettySize=auto;html=1;entryX=0.628;entryY=1.04;entryDx=0;entryDy=0;entryPerimeter=0;" edge="1" parent="1" source="dOwPOWtXe94sO2T78dOZ-6" target="dOwPOWtXe94sO2T78dOZ-1">
          <mxGeometry relative="1" as="geometry" />
        </mxCell>
        <mxCell id="dOwPOWtXe94sO2T78dOZ-14" style="edgeStyle=orthogonalEdgeStyle;rounded=0;orthogonalLoop=1;jettySize=auto;html=1;entryX=0.003;entryY=0.685;entryDx=0;entryDy=0;entryPerimeter=0;" edge="1" parent="1" source="dOwPOWtXe94sO2T78dOZ-1" target="dOwPOWtXe94sO2T78dOZ-6">
          <mxGeometry relative="1" as="geometry">
            <Array as="points">
              <mxPoint x="180" y="305" />
            </Array>
          </mxGeometry>
        </mxCell>
        <mxCell id="dOwPOWtXe94sO2T78dOZ-16" style="edgeStyle=orthogonalEdgeStyle;rounded=0;orthogonalLoop=1;jettySize=auto;html=1;exitX=1;exitY=1;exitDx=0;exitDy=0;entryX=0.113;entryY=0.215;entryDx=0;entryDy=0;entryPerimeter=0;" edge="1" parent="1" source="dOwPOWtXe94sO2T78dOZ-2" target="dOwPOWtXe94sO2T78dOZ-4">
          <mxGeometry relative="1" as="geometry">
            <Array as="points">
              <mxPoint x="378" y="230" />
              <mxPoint x="489" y="230" />
            </Array>
          </mxGeometry>
        </mxCell>
        <mxCell id="dOwPOWtXe94sO2T78dOZ-19" value="Query data" style="text;html=1;align=center;verticalAlign=middle;resizable=0;points=[];autosize=1;strokeColor=none;fillColor=none;" vertex="1" parent="1">
          <mxGeometry x="480" y="350" width="80" height="30" as="geometry" />
        </mxCell>
        <mxCell id="dOwPOWtXe94sO2T78dOZ-21" value="&lt;div&gt;Results data&lt;/div&gt;" style="text;html=1;align=center;verticalAlign=middle;resizable=0;points=[];autosize=1;strokeColor=none;fillColor=none;" vertex="1" parent="1">
          <mxGeometry x="180" y="300" width="90" height="30" as="geometry" />
        </mxCell>
        <mxCell id="dOwPOWtXe94sO2T78dOZ-22" value="Query results" style="text;html=1;align=center;verticalAlign=middle;resizable=0;points=[];autosize=1;strokeColor=none;fillColor=none;" vertex="1" parent="1">
          <mxGeometry x="200" y="260" width="90" height="30" as="geometry" />
        </mxCell>
        <mxCell id="dOwPOWtXe94sO2T78dOZ-23" value="&lt;div&gt;Website&lt;/div&gt;&lt;div&gt;Term&lt;br&gt;&lt;/div&gt;" style="text;html=1;align=center;verticalAlign=middle;resizable=0;points=[];autosize=1;strokeColor=none;fillColor=none;" vertex="1" parent="1">
          <mxGeometry x="240" y="150" width="70" height="40" as="geometry" />
        </mxCell>
        <mxCell id="dOwPOWtXe94sO2T78dOZ-25" value="Response" style="text;html=1;align=center;verticalAlign=middle;resizable=0;points=[];autosize=1;strokeColor=none;fillColor=none;" vertex="1" parent="1">
          <mxGeometry x="210" y="98" width="80" height="30" as="geometry" />
        </mxCell>
        <mxCell id="dOwPOWtXe94sO2T78dOZ-26" value="Input data" style="text;html=1;align=center;verticalAlign=middle;resizable=0;points=[];autosize=1;strokeColor=none;fillColor=none;" vertex="1" parent="1">
          <mxGeometry x="470" y="88" width="80" height="30" as="geometry" />
        </mxCell>
        <mxCell id="dOwPOWtXe94sO2T78dOZ-27" value="Term" style="text;html=1;align=center;verticalAlign=middle;resizable=0;points=[];autosize=1;strokeColor=none;fillColor=none;" vertex="1" parent="1">
          <mxGeometry x="400" y="225" width="50" height="30" as="geometry" />
        </mxCell>
        <mxCell id="dOwPOWtXe94sO2T78dOZ-28" value="&lt;div&gt;html&lt;/div&gt;&lt;div&gt;text&lt;/div&gt;" style="text;html=1;align=center;verticalAlign=middle;resizable=0;points=[];autosize=1;strokeColor=none;fillColor=none;" vertex="1" parent="1">
          <mxGeometry x="510" y="200" width="50" height="40" as="geometry" />
        </mxCell>
        <mxCell id="dOwPOWtXe94sO2T78dOZ-29" value="&lt;div&gt;Request&lt;/div&gt;&lt;div&gt;data&lt;br&gt;&lt;/div&gt;" style="text;html=1;align=center;verticalAlign=middle;resizable=0;points=[];autosize=1;strokeColor=none;fillColor=none;" vertex="1" parent="1">
          <mxGeometry x="390" y="150" width="70" height="40" as="geometry" />
        </mxCell>
        <mxCell id="dOwPOWtXe94sO2T78dOZ-30" value="&lt;div&gt;html text&amp;nbsp;&lt;/div&gt;&lt;div&gt;data&lt;/div&gt;" style="text;html=1;align=center;verticalAlign=middle;resizable=0;points=[];autosize=1;strokeColor=none;fillColor=none;" vertex="1" parent="1">
          <mxGeometry x="590" y="240" width="70" height="40" as="geometry" />
        </mxCell>
      </root>
    </mxGraphModel>
  </diagram>
</mxfile>
